<?xml version="1.0" encoding="us-ascii" standalone="no"?><svg xmlns="http://www.w3.org/2000/svg" xmlns:xlink="http://www.w3.org/1999/xlink" contentStyleType="text/css" height="1265px" preserveAspectRatio="none" style="width:1059px;height:1265px;background:#FFFFFF;" version="1.1" viewBox="0 0 1059 1265" width="1059px" zoomAndPan="magnify"><defs/><g><!--cluster Frontend--><g id="cluster_Frontend"><path d="M8.5,6 L73.5,6 A3.75,3.75 0 0 1 76,8.5 L83,28.4883 L1049.5,28.4883 A2.5,2.5 0 0 1 1052,30.9883 L1052,1134.4 A2.5,2.5 0 0 1 1049.5,1136.9 L8.5,1136.9 A2.5,2.5 0 0 1 6,1134.4 L6,8.5 A2.5,2.5 0 0 1 8.5,6 " fill="none" style="stroke:#000000;stroke-width:1.5;"/><line style="stroke:#000000;stroke-width:1.5;" x1="6" x2="83" y1="28.4883" y2="28.4883"/><text fill="#000000" font-family="sans-serif" font-size="14" font-weight="bold" lengthAdjust="spacing" textLength="64" x="10" y="21.5352">Frontend</text></g><!--cluster frontend.entrypoint--><g id="cluster_frontend.entrypoint"><path d="M381.5,57 L457.5,57 A3.75,3.75 0 0 1 460,59.5 L467,79.4883 L676.5,79.4883 A2.5,2.5 0 0 1 679,81.9883 L679,167.98 A2.5,2.5 0 0 1 676.5,170.48 L381.5,170.48 A2.5,2.5 0 0 1 379,167.98 L379,59.5 A2.5,2.5 0 0 1 381.5,57 " fill="none" style="stroke:#000000;stroke-width:1.5;"/><line style="stroke:#000000;stroke-width:1.5;" x1="379" x2="467" y1="79.4883" y2="79.4883"/><text fill="#000000" font-family="sans-serif" font-size="14" font-weight="bold" lengthAdjust="spacing" textLength="75" x="383" y="72.5352">entrypoint</text></g><!--cluster frontend.shared--><g id="cluster_frontend.shared"><path d="M366.5,778.44 L415.5,778.44 A3.75,3.75 0 0 1 418,780.94 L425,800.9283 L916.5,800.9283 A2.5,2.5 0 0 1 919,803.4283 L919,889.43 A2.5,2.5 0 0 1 916.5,891.93 L366.5,891.93 A2.5,2.5 0 0 1 364,889.43 L364,780.94 A2.5,2.5 0 0 1 366.5,778.44 " fill="#E8E8E8" style="stroke:#000000;stroke-width:1.5;"/><line style="stroke:#000000;stroke-width:1.5;" x1="364" x2="425" y1="800.9283" y2="800.9283"/><text fill="#000000" font-family="sans-serif" font-size="14" font-weight="bold" lengthAdjust="spacing" textLength="48" x="368" y="793.9752">shared</text></g><!--cluster portfolio--><g id="cluster_portfolio"><path d="M306.5,231.48 L371.5,231.48 A3.75,3.75 0 0 1 374,233.98 L381,253.9683 L1017.5,253.9683 A2.5,2.5 0 0 1 1020,256.4683 L1020,735.94 A2.5,2.5 0 0 1 1017.5,738.44 L306.5,738.44 A2.5,2.5 0 0 1 304,735.94 L304,233.98 A2.5,2.5 0 0 1 306.5,231.48 " fill="none" style="stroke:#000000;stroke-width:1.5;"/><line style="stroke:#000000;stroke-width:1.5;" x1="304" x2="381" y1="253.9683" y2="253.9683"/><text fill="#000000" font-family="sans-serif" font-size="14" font-weight="bold" lengthAdjust="spacing" textLength="64" x="308" y="247.0152">portfolio</text></g><!--cluster shares--><g id="cluster_shares"><path d="M338.5,282.48 L386.5,282.48 A3.75,3.75 0 0 1 389,284.98 L396,304.9683 L539.5,304.9683 A2.5,2.5 0 0 1 542,307.4683 L542,703.94 A2.5,2.5 0 0 1 539.5,706.44 L338.5,706.44 A2.5,2.5 0 0 1 336,703.94 L336,284.98 A2.5,2.5 0 0 1 338.5,282.48 " fill="none" style="stroke:#000000;stroke-width:1.5;"/><line style="stroke:#000000;stroke-width:1.5;" x1="336" x2="396" y1="304.9683" y2="304.9683"/><text fill="#000000" font-family="sans-serif" font-size="14" font-weight="bold" lengthAdjust="spacing" textLength="47" x="340" y="298.0152">shares</text></g><!--cluster crypto--><g id="cluster_crypto"><path d="M568.5,282.48 L614.5,282.48 A3.75,3.75 0 0 1 617,284.98 L624,304.9683 L767.5,304.9683 A2.5,2.5 0 0 1 770,307.4683 L770,703.94 A2.5,2.5 0 0 1 767.5,706.44 L568.5,706.44 A2.5,2.5 0 0 1 566,703.94 L566,284.98 A2.5,2.5 0 0 1 568.5,282.48 " fill="none" style="stroke:#000000;stroke-width:1.5;"/><line style="stroke:#000000;stroke-width:1.5;" x1="566" x2="624" y1="304.9683" y2="304.9683"/><text fill="#000000" font-family="sans-serif" font-size="14" font-weight="bold" lengthAdjust="spacing" textLength="45" x="570" y="298.0152">crypto</text></g><!--cluster etfs--><g id="cluster_etfs"><path d="M796.5,282.48 L825.5,282.48 A3.75,3.75 0 0 1 828,284.98 L835,304.9683 L977.5,304.9683 A2.5,2.5 0 0 1 980,307.4683 L980,703.94 A2.5,2.5 0 0 1 977.5,706.44 L796.5,706.44 A2.5,2.5 0 0 1 794,703.94 L794,284.98 A2.5,2.5 0 0 1 796.5,282.48 " fill="none" style="stroke:#000000;stroke-width:1.5;"/><line style="stroke:#000000;stroke-width:1.5;" x1="794" x2="835" y1="304.9683" y2="304.9683"/><text fill="#000000" font-family="sans-serif" font-size="14" font-weight="bold" lengthAdjust="spacing" textLength="28" x="798" y="298.0152">etfs</text></g><!--cluster auth--><g id="cluster_auth"><path d="M40.5,600.95 L73.5,600.95 A3.75,3.75 0 0 1 76,603.45 L83,623.4383 L261.5,623.4383 A2.5,2.5 0 0 1 264,625.9383 L264,1102.4 A2.5,2.5 0 0 1 261.5,1104.9 L40.5,1104.9 A2.5,2.5 0 0 1 38,1102.4 L38,603.45 A2.5,2.5 0 0 1 40.5,600.95 " fill="none" style="stroke:#000000;stroke-width:1.5;"/><line style="stroke:#000000;stroke-width:1.5;" x1="38" x2="83" y1="623.4383" y2="623.4383"/><text fill="#000000" font-family="sans-serif" font-size="14" font-weight="bold" lengthAdjust="spacing" textLength="32" x="42" y="616.4852">auth</text></g><!--cluster Backend--><g id="cluster_Backend"><path d="M122.5,1160.9 L182.5,1160.9 A3.75,3.75 0 0 1 185,1163.4 L192,1183.3883 L422.5,1183.3883 A2.5,2.5 0 0 1 425,1185.8883 L425,1255.89 A2.5,2.5 0 0 1 422.5,1258.39 L122.5,1258.39 A2.5,2.5 0 0 1 120,1255.89 L120,1163.4 A2.5,2.5 0 0 1 122.5,1160.9 " fill="none" style="stroke:#000000;stroke-width:1.5;"/><line style="stroke:#000000;stroke-width:1.5;" x1="120" x2="192" y1="1183.3883" y2="1183.3883"/><text fill="#000000" font-family="sans-serif" font-size="14" font-weight="bold" lengthAdjust="spacing" textLength="59" x="124" y="1176.4352">Backend</text></g><!--entity mainTs--><g id="elem_mainTs"><rect fill="#F1F1F1" height="46.4883" rx="2.5" ry="2.5" style="stroke:#181818;stroke-width:0.5;" width="90" x="403" y="100"/><rect fill="#F1F1F1" height="10" style="stroke:#181818;stroke-width:0.5;" width="15" x="473" y="105"/><rect fill="#F1F1F1" height="2" style="stroke:#181818;stroke-width:0.5;" width="4" x="471" y="107"/><rect fill="#F1F1F1" height="2" style="stroke:#181818;stroke-width:0.5;" width="4" x="471" y="111"/><text fill="#000000" font-family="sans-serif" font-size="14" lengthAdjust="spacing" textLength="50" x="418" y="133.5352">mainTs</text></g><!--entity AppSvelte--><g id="elem_AppSvelte"><rect fill="#F1F1F1" height="46.4883" rx="2.5" ry="2.5" style="stroke:#181818;stroke-width:0.5;" width="108" x="528" y="100"/><rect fill="#F1F1F1" height="10" style="stroke:#181818;stroke-width:0.5;" width="15" x="616" y="105"/><rect fill="#F1F1F1" height="2" style="stroke:#181818;stroke-width:0.5;" width="4" x="614" y="107"/><rect fill="#F1F1F1" height="2" style="stroke:#181818;stroke-width:0.5;" width="4" x="614" y="111"/><text fill="#000000" font-family="sans-serif" font-size="14" lengthAdjust="spacing" textLength="68" x="543" y="133.5352">AppSvelte</text></g><!--entity apiClient--><g id="elem_apiClient"><rect fill="#F1F1F1" height="46.4883" rx="2.5" ry="2.5" style="stroke:#181818;stroke-width:0.5;" width="101" x="388.5" y="821.44"/><rect fill="#F1F1F1" height="10" style="stroke:#181818;stroke-width:0.5;" width="15" x="469.5" y="826.44"/><rect fill="#F1F1F1" height="2" style="stroke:#181818;stroke-width:0.5;" width="4" x="467.5" y="828.44"/><rect fill="#F1F1F1" height="2" style="stroke:#181818;stroke-width:0.5;" width="4" x="467.5" y="832.44"/><text fill="#000000" font-family="sans-serif" font-size="14" lengthAdjust="spacing" textLength="61" x="403.5" y="854.9752">apiClient</text></g><!--entity sharedUiComponents--><g id="elem_sharedUiComponents"><rect fill="#F1F1F1" height="46.4883" rx="2.5" ry="2.5" style="stroke:#181818;stroke-width:0.5;" width="189" x="524.5" y="821.44"/><rect fill="#F1F1F1" height="10" style="stroke:#181818;stroke-width:0.5;" width="15" x="693.5" y="826.44"/><rect fill="#F1F1F1" height="2" style="stroke:#181818;stroke-width:0.5;" width="4" x="691.5" y="828.44"/><rect fill="#F1F1F1" height="2" style="stroke:#181818;stroke-width:0.5;" width="4" x="691.5" y="832.44"/><text fill="#000000" font-family="sans-serif" font-size="14" lengthAdjust="spacing" textLength="149" x="539.5" y="854.9752">sharedUiComponents</text></g><!--entity sharedTypes--><g id="elem_sharedTypes"><rect fill="#F1F1F1" height="46.4883" rx="2.5" ry="2.5" style="stroke:#181818;stroke-width:0.5;" width="127" x="748.5" y="821.44"/><rect fill="#F1F1F1" height="10" style="stroke:#181818;stroke-width:0.5;" width="15" x="855.5" y="826.44"/><rect fill="#F1F1F1" height="2" style="stroke:#181818;stroke-width:0.5;" width="4" x="853.5" y="828.44"/><rect fill="#F1F1F1" height="2" style="stroke:#181818;stroke-width:0.5;" width="4" x="853.5" y="832.44"/><text fill="#000000" font-family="sans-serif" font-size="14" lengthAdjust="spacing" textLength="87" x="763.5" y="854.9752">sharedTypes</text></g><!--entity sharesComponents--><g id="elem_sharesComponents"><rect fill="#F1F1F1" height="46.4883" rx="2.5" ry="2.5" style="stroke:#181818;stroke-width:0.5;" width="173" x="352.5" y="317.48"/><rect fill="#F1F1F1" height="10" style="stroke:#181818;stroke-width:0.5;" width="15" x="505.5" y="322.48"/><rect fill="#F1F1F1" height="2" style="stroke:#181818;stroke-width:0.5;" width="4" x="503.5" y="324.48"/><rect fill="#F1F1F1" height="2" style="stroke:#181818;stroke-width:0.5;" width="4" x="503.5" y="328.48"/><text fill="#000000" font-family="sans-serif" font-size="14" lengthAdjust="spacing" textLength="133" x="367.5" y="351.0152">sharesComponents</text></g><!--entity sharesStore--><g id="elem_sharesStore"><rect fill="#F1F1F1" height="46.4883" rx="2.5" ry="2.5" style="stroke:#181818;stroke-width:0.5;" width="121" x="378.5" y="423.97"/><rect fill="#F1F1F1" height="10" style="stroke:#181818;stroke-width:0.5;" width="15" x="479.5" y="428.97"/><rect fill="#F1F1F1" height="2" style="stroke:#181818;stroke-width:0.5;" width="4" x="477.5" y="430.97"/><rect fill="#F1F1F1" height="2" style="stroke:#181818;stroke-width:0.5;" width="4" x="477.5" y="434.97"/><text fill="#000000" font-family="sans-serif" font-size="14" lengthAdjust="spacing" textLength="81" x="393.5" y="457.5052">sharesStore</text></g><!--entity sharesService--><g id="elem_sharesService"><rect fill="#F1F1F1" height="46.4883" rx="2.5" ry="2.5" style="stroke:#181818;stroke-width:0.5;" width="133" x="372.5" y="530.46"/><rect fill="#F1F1F1" height="10" style="stroke:#181818;stroke-width:0.5;" width="15" x="485.5" y="535.46"/><rect fill="#F1F1F1" height="2" style="stroke:#181818;stroke-width:0.5;" width="4" x="483.5" y="537.46"/><rect fill="#F1F1F1" height="2" style="stroke:#181818;stroke-width:0.5;" width="4" x="483.5" y="541.46"/><text fill="#000000" font-family="sans-serif" font-size="14" lengthAdjust="spacing" textLength="93" x="387.5" y="563.9952">sharesService</text></g><!--entity sharesApi--><g id="elem_sharesApi"><rect fill="#F1F1F1" height="46.4883" rx="2.5" ry="2.5" style="stroke:#181818;stroke-width:0.5;" width="108" x="385" y="643.95"/><rect fill="#F1F1F1" height="10" style="stroke:#181818;stroke-width:0.5;" width="15" x="473" y="648.95"/><rect fill="#F1F1F1" height="2" style="stroke:#181818;stroke-width:0.5;" width="4" x="471" y="650.95"/><rect fill="#F1F1F1" height="2" style="stroke:#181818;stroke-width:0.5;" width="4" x="471" y="654.95"/><text fill="#000000" font-family="sans-serif" font-size="14" lengthAdjust="spacing" textLength="68" x="400" y="677.4852">sharesApi</text></g><!--entity cryptoComponents--><g id="elem_cryptoComponents"><rect fill="#F1F1F1" height="46.4883" rx="2.5" ry="2.5" style="stroke:#181818;stroke-width:0.5;" width="171" x="582.5" y="317.48"/><rect fill="#F1F1F1" height="10" style="stroke:#181818;stroke-width:0.5;" width="15" x="733.5" y="322.48"/><rect fill="#F1F1F1" height="2" style="stroke:#181818;stroke-width:0.5;" width="4" x="731.5" y="324.48"/><rect fill="#F1F1F1" height="2" style="stroke:#181818;stroke-width:0.5;" width="4" x="731.5" y="328.48"/><text fill="#000000" font-family="sans-serif" font-size="14" lengthAdjust="spacing" textLength="131" x="597.5" y="351.0152">cryptoComponents</text></g><!--entity cryptoStore--><g id="elem_cryptoStore"><rect fill="#F1F1F1" height="46.4883" rx="2.5" ry="2.5" style="stroke:#181818;stroke-width:0.5;" width="119" x="602.5" y="423.97"/><rect fill="#F1F1F1" height="10" style="stroke:#181818;stroke-width:0.5;" width="15" x="701.5" y="428.97"/><rect fill="#F1F1F1" height="2" style="stroke:#181818;stroke-width:0.5;" width="4" x="699.5" y="430.97"/><rect fill="#F1F1F1" height="2" style="stroke:#181818;stroke-width:0.5;" width="4" x="699.5" y="434.97"/><text fill="#000000" font-family="sans-serif" font-size="14" lengthAdjust="spacing" textLength="79" x="617.5" y="457.5052">cryptoStore</text></g><!--entity cryptoService--><g id="elem_cryptoService"><rect fill="#F1F1F1" height="46.4883" rx="2.5" ry="2.5" style="stroke:#181818;stroke-width:0.5;" width="131" x="591.5" y="530.46"/><rect fill="#F1F1F1" height="10" style="stroke:#181818;stroke-width:0.5;" width="15" x="702.5" y="535.46"/><rect fill="#F1F1F1" height="2" style="stroke:#181818;stroke-width:0.5;" width="4" x="700.5" y="537.46"/><rect fill="#F1F1F1" height="2" style="stroke:#181818;stroke-width:0.5;" width="4" x="700.5" y="541.46"/><text fill="#000000" font-family="sans-serif" font-size="14" lengthAdjust="spacing" textLength="91" x="606.5" y="563.9952">cryptoService</text></g><!--entity cryptoApi--><g id="elem_cryptoApi"><rect fill="#F1F1F1" height="46.4883" rx="2.5" ry="2.5" style="stroke:#181818;stroke-width:0.5;" width="106" x="593" y="643.95"/><rect fill="#F1F1F1" height="10" style="stroke:#181818;stroke-width:0.5;" width="15" x="679" y="648.95"/><rect fill="#F1F1F1" height="2" style="stroke:#181818;stroke-width:0.5;" width="4" x="677" y="650.95"/><rect fill="#F1F1F1" height="2" style="stroke:#181818;stroke-width:0.5;" width="4" x="677" y="654.95"/><text fill="#000000" font-family="sans-serif" font-size="14" lengthAdjust="spacing" textLength="66" x="608" y="677.4852">cryptoApi</text></g><!--entity etfsComponents--><g id="elem_etfsComponents"><rect fill="#F1F1F1" height="46.4883" rx="2.5" ry="2.5" style="stroke:#181818;stroke-width:0.5;" width="153" x="810.5" y="317.48"/><rect fill="#F1F1F1" height="10" style="stroke:#181818;stroke-width:0.5;" width="15" x="943.5" y="322.48"/><rect fill="#F1F1F1" height="2" style="stroke:#181818;stroke-width:0.5;" width="4" x="941.5" y="324.48"/><rect fill="#F1F1F1" height="2" style="stroke:#181818;stroke-width:0.5;" width="4" x="941.5" y="328.48"/><text fill="#000000" font-family="sans-serif" font-size="14" lengthAdjust="spacing" textLength="113" x="825.5" y="351.0152">etfsComponents</text></g><!--entity etfsStore--><g id="elem_etfsStore"><rect fill="#F1F1F1" height="46.4883" rx="2.5" ry="2.5" style="stroke:#181818;stroke-width:0.5;" width="101" x="830.5" y="423.97"/><rect fill="#F1F1F1" height="10" style="stroke:#181818;stroke-width:0.5;" width="15" x="911.5" y="428.97"/><rect fill="#F1F1F1" height="2" style="stroke:#181818;stroke-width:0.5;" width="4" x="909.5" y="430.97"/><rect fill="#F1F1F1" height="2" style="stroke:#181818;stroke-width:0.5;" width="4" x="909.5" y="434.97"/><text fill="#000000" font-family="sans-serif" font-size="14" lengthAdjust="spacing" textLength="61" x="845.5" y="457.5052">etfsStore</text></g><!--entity etfsService--><g id="elem_etfsService"><rect fill="#F1F1F1" height="46.4883" rx="2.5" ry="2.5" style="stroke:#181818;stroke-width:0.5;" width="113" x="819.5" y="530.46"/><rect fill="#F1F1F1" height="10" style="stroke:#181818;stroke-width:0.5;" width="15" x="912.5" y="535.46"/><rect fill="#F1F1F1" height="2" style="stroke:#181818;stroke-width:0.5;" width="4" x="910.5" y="537.46"/><rect fill="#F1F1F1" height="2" style="stroke:#181818;stroke-width:0.5;" width="4" x="910.5" y="541.46"/><text fill="#000000" font-family="sans-serif" font-size="14" lengthAdjust="spacing" textLength="73" x="834.5" y="563.9952">etfsService</text></g><!--entity etfsApi--><g id="elem_etfsApi"><rect fill="#F1F1F1" height="46.4883" rx="2.5" ry="2.5" style="stroke:#181818;stroke-width:0.5;" width="88" x="821" y="643.95"/><rect fill="#F1F1F1" height="10" style="stroke:#181818;stroke-width:0.5;" width="15" x="889" y="648.95"/><rect fill="#F1F1F1" height="2" style="stroke:#181818;stroke-width:0.5;" width="4" x="887" y="650.95"/><rect fill="#F1F1F1" height="2" style="stroke:#181818;stroke-width:0.5;" width="4" x="887" y="654.95"/><text fill="#000000" font-family="sans-serif" font-size="14" lengthAdjust="spacing" textLength="48" x="836" y="677.4852">etfsApi</text></g><!--entity authComponents--><g id="elem_authComponents"><rect fill="#F1F1F1" height="46.4883" rx="2.5" ry="2.5" style="stroke:#181818;stroke-width:0.5;" width="159" x="61.5" y="643.95"/><rect fill="#F1F1F1" height="10" style="stroke:#181818;stroke-width:0.5;" width="15" x="200.5" y="648.95"/><rect fill="#F1F1F1" height="2" style="stroke:#181818;stroke-width:0.5;" width="4" x="198.5" y="650.95"/><rect fill="#F1F1F1" height="2" style="stroke:#181818;stroke-width:0.5;" width="4" x="198.5" y="654.95"/><text fill="#000000" font-family="sans-serif" font-size="14" lengthAdjust="spacing" textLength="119" x="76.5" y="677.4852">authComponents</text></g><!--entity authStore--><g id="elem_authStore"><rect fill="#F1F1F1" height="46.4883" rx="2.5" ry="2.5" style="stroke:#181818;stroke-width:0.5;" width="107" x="106.5" y="821.44"/><rect fill="#F1F1F1" height="10" style="stroke:#181818;stroke-width:0.5;" width="15" x="193.5" y="826.44"/><rect fill="#F1F1F1" height="2" style="stroke:#181818;stroke-width:0.5;" width="4" x="191.5" y="828.44"/><rect fill="#F1F1F1" height="2" style="stroke:#181818;stroke-width:0.5;" width="4" x="191.5" y="832.44"/><text fill="#000000" font-family="sans-serif" font-size="14" lengthAdjust="spacing" textLength="67" x="121.5" y="854.9752">authStore</text></g><!--entity authService--><g id="elem_authService"><rect fill="#F1F1F1" height="46.4883" rx="2.5" ry="2.5" style="stroke:#181818;stroke-width:0.5;" width="119" x="100.5" y="927.93"/><rect fill="#F1F1F1" height="10" style="stroke:#181818;stroke-width:0.5;" width="15" x="199.5" y="932.93"/><rect fill="#F1F1F1" height="2" style="stroke:#181818;stroke-width:0.5;" width="4" x="197.5" y="934.93"/><rect fill="#F1F1F1" height="2" style="stroke:#181818;stroke-width:0.5;" width="4" x="197.5" y="938.93"/><text fill="#000000" font-family="sans-serif" font-size="14" lengthAdjust="spacing" textLength="79" x="115.5" y="961.4652">authService</text></g><!--entity authApi--><g id="elem_authApi"><rect fill="#F1F1F1" height="46.4883" rx="2.5" ry="2.5" style="stroke:#181818;stroke-width:0.5;" width="94" x="119" y="1034.41"/><rect fill="#F1F1F1" height="10" style="stroke:#181818;stroke-width:0.5;" width="15" x="193" y="1039.41"/><rect fill="#F1F1F1" height="2" style="stroke:#181818;stroke-width:0.5;" width="4" x="191" y="1041.41"/><rect fill="#F1F1F1" height="2" style="stroke:#181818;stroke-width:0.5;" width="4" x="191" y="1045.41"/><text fill="#000000" font-family="sans-serif" font-size="14" lengthAdjust="spacing" textLength="54" x="134" y="1067.9452">authApi</text></g><!--entity capitly.core--><g id="elem_capitly.core"><rect fill="#F1F1F1" height="46.4883" rx="2.5" ry="2.5" style="stroke:#181818;stroke-width:0.5;" width="118" x="291" y="1195.9"/><rect fill="#F1F1F1" height="10" style="stroke:#181818;stroke-width:0.5;" width="15" x="389" y="1200.9"/><rect fill="#F1F1F1" height="2" style="stroke:#181818;stroke-width:0.5;" width="4" x="387" y="1202.9"/><rect fill="#F1F1F1" height="2" style="stroke:#181818;stroke-width:0.5;" width="4" x="387" y="1206.9"/><text fill="#000000" font-family="sans-serif" font-size="14" lengthAdjust="spacing" textLength="78" x="306" y="1229.4352">capitly.core</text></g><!--entity capitly.auth--><g id="elem_capitly.auth"><rect fill="#F1F1F1" height="46.4883" rx="2.5" ry="2.5" style="stroke:#181818;stroke-width:0.5;" width="119" x="136.5" y="1195.9"/><rect fill="#F1F1F1" height="10" style="stroke:#181818;stroke-width:0.5;" width="15" x="235.5" y="1200.9"/><rect fill="#F1F1F1" height="2" style="stroke:#181818;stroke-width:0.5;" width="4" x="233.5" y="1202.9"/><rect fill="#F1F1F1" height="2" style="stroke:#181818;stroke-width:0.5;" width="4" x="233.5" y="1206.9"/><text fill="#000000" font-family="sans-serif" font-size="14" lengthAdjust="spacing" textLength="79" x="151.5" y="1229.4352">capitly.auth</text></g><!--link sharesComponents to sharesStore--><g id="link_sharesComponents_sharesStore"><path d="M439,364.36 C439,382.01 439,400.02 439,417.65 " fill="none" id="sharesComponents-to-sharesStore" style="stroke:#181818;stroke-width:1.0;"/><polygon fill="#181818" points="439,423.65,443,414.65,439,418.65,435,414.65,439,423.65" style="stroke:#181818;stroke-width:1.0;"/><text fill="#000000" font-family="sans-serif" font-size="13" lengthAdjust="spacing" textLength="47" x="391" y="390.5684">ui state</text></g><!--link sharesStore to sharesService--><g id="link_sharesStore_sharesService"><path d="M439,470.85 C439,488.5 439,506.51 439,524.14 " fill="none" id="sharesStore-to-sharesService" style="stroke:#181818;stroke-width:1.0;"/><polygon fill="#181818" points="439,530.14,443,521.14,439,525.14,435,521.14,439,530.14" style="stroke:#181818;stroke-width:1.0;"/><text fill="#000000" font-family="sans-serif" font-size="13" lengthAdjust="spacing" textLength="97" x="341" y="497.0584">domain actions</text></g><!--link sharesService to sharesApi--><g id="link_sharesService_sharesApi"><path d="M439,577.22 C439,596.7 439,618.24 439,637.71 " fill="none" id="sharesService-to-sharesApi" style="stroke:#181818;stroke-width:1.0;"/><polygon fill="#181818" points="439,643.71,443,634.71,439,638.71,435,634.71,439,643.71" style="stroke:#181818;stroke-width:1.0;"/><text fill="#000000" font-family="sans-serif" font-size="13" lengthAdjust="spacing" textLength="54" x="384" y="607.0284">requests</text></g><!--link cryptoComponents to cryptoStore--><g id="link_cryptoComponents_cryptoStore"><path d="M662,364.36 C662,382.01 662,400.02 662,417.65 " fill="none" id="cryptoComponents-to-cryptoStore" style="stroke:#181818;stroke-width:1.0;"/><polygon fill="#181818" points="662,423.65,666,414.65,662,418.65,658,414.65,662,423.65" style="stroke:#181818;stroke-width:1.0;"/><text fill="#000000" font-family="sans-serif" font-size="13" lengthAdjust="spacing" textLength="47" x="614" y="390.5684">ui state</text></g><!--link cryptoStore to cryptoService--><g id="link_cryptoStore_cryptoService"><path d="M662,470.85 C662,488.5 662,506.51 662,524.14 " fill="none" id="cryptoStore-to-cryptoService" style="stroke:#181818;stroke-width:1.0;"/><polygon fill="#181818" points="662,530.14,666,521.14,662,525.14,658,521.14,662,530.14" style="stroke:#181818;stroke-width:1.0;"/><text fill="#000000" font-family="sans-serif" font-size="13" lengthAdjust="spacing" textLength="97" x="564" y="497.0584">domain actions</text></g><!--link cryptoService to cryptoApi--><g id="link_cryptoService_cryptoApi"><path d="M646,577.22 C646,596.7 646,618.24 646,637.71 " fill="none" id="cryptoService-to-cryptoApi" style="stroke:#181818;stroke-width:1.0;"/><polygon fill="#181818" points="646,643.71,650,634.71,646,638.71,642,634.71,646,643.71" style="stroke:#181818;stroke-width:1.0;"/><text fill="#000000" font-family="sans-serif" font-size="13" lengthAdjust="spacing" textLength="54" x="591" y="607.0284">requests</text></g><!--link etfsComponents to etfsStore--><g id="link_etfsComponents_etfsStore"><path d="M881,364.36 C881,382.01 881,400.02 881,417.65 " fill="none" id="etfsComponents-to-etfsStore" style="stroke:#181818;stroke-width:1.0;"/><polygon fill="#181818" points="881,423.65,885,414.65,881,418.65,877,414.65,881,423.65" style="stroke:#181818;stroke-width:1.0;"/><text fill="#000000" font-family="sans-serif" font-size="13" lengthAdjust="spacing" textLength="47" x="833" y="390.5684">ui state</text></g><!--link etfsStore to etfsService--><g id="link_etfsStore_etfsService"><path d="M881,470.85 C881,488.5 881,506.51 881,524.14 " fill="none" id="etfsStore-to-etfsService" style="stroke:#181818;stroke-width:1.0;"/><polygon fill="#181818" points="881,530.14,885,521.14,881,525.14,877,521.14,881,530.14" style="stroke:#181818;stroke-width:1.0;"/><text fill="#000000" font-family="sans-serif" font-size="13" lengthAdjust="spacing" textLength="97" x="783" y="497.0584">domain actions</text></g><!--link etfsService to etfsApi--><g id="link_etfsService_etfsApi"><path d="M865,577.22 C865,596.7 865,618.24 865,637.71 " fill="none" id="etfsService-to-etfsApi" style="stroke:#181818;stroke-width:1.0;"/><polygon fill="#181818" points="865,643.71,869,634.71,865,638.71,861,634.71,865,643.71" style="stroke:#181818;stroke-width:1.0;"/><text fill="#000000" font-family="sans-serif" font-size="13" lengthAdjust="spacing" textLength="54" x="810" y="607.0284">requests</text></g><!--link authComponents to authStore--><g id="link_authComponents_authStore"><path d="M160,690.76 C160,724.71 160,781.01 160,815.01 " fill="none" id="authComponents-to-authStore" style="stroke:#181818;stroke-width:1.0;"/><polygon fill="#181818" points="160,821.01,164,812.01,160,816.01,156,812.01,160,821.01" style="stroke:#181818;stroke-width:1.0;"/><text fill="#000000" font-family="sans-serif" font-size="13" lengthAdjust="spacing" textLength="47" x="112" y="752.4584">ui state</text></g><!--link authStore to authService--><g id="link_authStore_authService"><path d="M160,868.31 C160,885.96 160,903.97 160,921.6 " fill="none" id="authStore-to-authService" style="stroke:#181818;stroke-width:1.0;"/><polygon fill="#181818" points="160,927.6,164,918.6,160,922.6,156,918.6,160,927.6" style="stroke:#181818;stroke-width:1.0;"/><text fill="#000000" font-family="sans-serif" font-size="13" lengthAdjust="spacing" textLength="78" x="81" y="894.5284">auth actions</text></g><!--link authService to authApi--><g id="link_authService_authApi"><path d="M166,974.8 C166,992.45 166,1010.46 166,1028.09 " fill="none" id="authService-to-authApi" style="stroke:#181818;stroke-width:1.0;"/><polygon fill="#181818" points="166,1034.09,170,1025.09,166,1029.09,162,1025.09,166,1034.09" style="stroke:#181818;stroke-width:1.0;"/><text fill="#000000" font-family="sans-serif" font-size="13" lengthAdjust="spacing" textLength="54" x="111" y="1001.0184">requests</text></g><!--link frontend.entrypoint to portfolio--><g id="link_frontend.entrypoint_portfolio"><path d="M679.143,123.39 C679.5782,123.39 680.0295,123.39 680.4967,123.39 C681.4311,123.39 682.4291,123.39 683.4882,123.39 C685.6065,123.39 687.9692,123.39 690.5571,123.39 C700.9088,123.39 714.8629,123.39 731.1789,123.39 C763.8109,123.39 805.8906,123.39 847.4938,123.39 C930.7,123.39 1012,123.39 1012,123.39 C1012,123.39 1012,174.3825 1012,226.9675 C1012,227.7891 1012,228.6112 1012,229.4334 C1012,229.8445 1012,224.2557 1012,224.6669 " fill="none" id="frontend.entrypoint-to-portfolio" style="stroke:#181818;stroke-width:1.0;"/><polygon fill="#181818" points="1012,230.6669,1016,221.6669,1012,225.6669,1008,221.6669,1012,230.6669" style="stroke:#181818;stroke-width:1.0;"/></g><!--reverse link auth to frontend.entrypoint--><g id="link_auth_frontend.entrypoint"><path d="M256,593.9859 C256,591.4826 256,593.0611 256,590.4606 C256,548.8525 256,495.1975 256,442.15 C256,336.055 256,232.39 256,232.39 C256,232.39 671,232.39 671,232.39 C671,232.39 671,207.6 671,181.6488 C671,178.4048 671,175.1428 671,171.9087 C671,171.5045 671,171.1007 671,170.6974 " fill="none" id="auth-backto-frontend.entrypoint" style="stroke:#181818;stroke-width:1.0;"/><polygon fill="#181818" points="256,599.9859,260,590.9859,256,594.9859,252,590.9859,256,599.9859" style="stroke:#181818;stroke-width:1.0;"/></g><!--link portfolio to frontend.shared--><g id="link_portfolio_frontend.shared"><path d="M1012,739.5527 C1012,740.3499 1012,741.1441 1012,741.9351 C1012,745.0994 1012,748.2144 1012,751.2765 C1012,757.4008 1012,763.3137 1012,768.9866 C1012,814.3694 1012,844.39 1012,844.39 C1012,844.39 989.0625,844.39 965.0487,844.39 C953.0419,844.39 940.7659,844.39 930.9536,844.39 C928.5005,844.39 926.2014,844.39 924.099,844.39 C923.0477,844.39 922.0457,844.39 921.0981,844.39 C920.6244,844.39 920.1642,844.39 919.7184,844.39 C919.4954,844.39 925.2761,844.39 925.0604,844.39 " fill="none" id="portfolio-to-frontend.shared" style="stroke:#181818;stroke-width:1.0;"/><polygon fill="#181818" points="919.0604,844.39,928.0604,848.39,924.0604,844.39,928.0604,840.39,919.0604,844.39" style="stroke:#181818;stroke-width:1.0;"/><text fill="#000000" font-family="sans-serif" font-size="13" lengthAdjust="spacing" textLength="203" x="808" y="639.7084">shared UI / types / auth session</text></g><!--link auth to frontend.shared--><g id="link_auth_frontend.shared"><path d="M264.5285,734.39 C264.8456,734.39 265.1714,734.39 265.5058,734.39 C266.1745,734.39 266.8776,734.39 267.6144,734.39 C269.088,734.39 270.6965,734.39 272.4349,734.39 C275.9117,734.39 279.908,734.39 284.3838,734.39 C302.2871,734.39 327.8633,734.39 358.5547,734.39 C419.9375,734.39 501.7813,734.39 583.625,734.39 C747.3125,734.39 911,734.39 911,734.39 C911,734.39 911,740.6519 911,750.1916 C911,754.9614 911,760.5507 911,766.5864 C911,769.6043 911,772.7338 911,775.9283 C911,776.7269 911,771.5296 911,772.3356 " fill="none" id="auth-to-frontend.shared" style="stroke:#181818;stroke-width:1.0;"/><polygon fill="#181818" points="911,778.3356,915,769.3356,911,773.3356,907,769.3356,911,778.3356" style="stroke:#181818;stroke-width:1.0;"/><text fill="#000000" font-family="sans-serif" font-size="13" lengthAdjust="spacing" textLength="108" x="496.2" y="730.9584">shared UI / types</text></g><!--reverse link apiClient to authStore--><g id="link_apiClient_authStore"><path d="M382.15,844.39 C332.8,844.39 264.17,844.39 213.83,844.39 " fill="none" id="apiClient-backto-authStore" style="stroke:#181818;stroke-width:1.0;"/><polygon fill="#181818" points="388.15,844.39,379.15,840.39,383.15,844.39,379.15,848.39,388.15,844.39" style="stroke:#181818;stroke-width:1.0;"/><text fill="#000000" font-family="sans-serif" font-size="13" lengthAdjust="spacing" textLength="72" x="227.99" y="840.9584">current JWT</text></g><!--link sharesApi to apiClient--><g id="link_sharesApi_apiClient"><path d="M422.17,690.76 C422.17,724.71 422.17,781.01 422.17,815.01 " fill="none" id="sharesApi-to-apiClient" style="stroke:#181818;stroke-width:1.0;"/><polygon fill="#181818" points="422.17,821.01,426.17,812.01,422.17,816.01,418.17,812.01,422.17,821.01" style="stroke:#181818;stroke-width:1.0;"/></g><!--link cryptoApi to apiClient--><g id="link_cryptoApi_apiClient"><path d="M592.72,667.39 C556.45,667.39 515,667.39 515,667.39 C515,667.39 515,844.39 515,844.39 C515,844.39 509.63,844.39 495.69,844.39 " fill="none" id="cryptoApi-to-apiClient" style="stroke:#181818;stroke-width:1.0;"/><polygon fill="#181818" points="489.69,844.39,498.69,848.39,494.69,844.39,498.69,840.39,489.69,844.39" style="stroke:#181818;stroke-width:1.0;"/></g><!--link etfsApi to apiClient--><g id="link_etfsApi_apiClient"><path d="M848.25,690.83 C848.25,723.21 848.25,777.39 848.25,777.39 C848.25,777.39 455.83,777.39 455.83,777.39 C455.83,777.39 455.83,795.74 455.83,815.15 " fill="none" id="etfsApi-to-apiClient" style="stroke:#181818;stroke-width:1.0;"/><polygon fill="#181818" points="455.83,821.15,459.83,812.15,455.83,816.15,451.83,812.15,455.83,821.15" style="stroke:#181818;stroke-width:1.0;"/></g><!--link apiClient to capitly.core--><g id="link_apiClient_capitly.core"><path d="M398.75,868.39 C398.75,935.91 398.75,1122.68 398.75,1189.78 " fill="none" id="apiClient-to-capitly.core" style="stroke:#181818;stroke-width:1.0;"/><polygon fill="#181818" points="398.75,1195.78,402.75,1186.78,398.75,1190.78,394.75,1186.78,398.75,1195.78" style="stroke:#181818;stroke-width:1.0;"/><text fill="#000000" font-family="sans-serif" font-size="13" lengthAdjust="spacing" textLength="128" x="269.75" y="1028.6584">REST (HTTPS / JSON)</text></g><!--link authApi to capitly.auth--><g id="link_authApi_capitly.auth"><path d="M174.75,1081.14 C174.75,1111.76 174.75,1159 174.75,1189.64 " fill="none" id="authApi-to-capitly.auth" style="stroke:#181818;stroke-width:1.0;"/><polygon fill="#181818" points="174.75,1195.64,178.75,1186.64,174.75,1190.64,170.75,1186.64,174.75,1195.64" style="stroke:#181818;stroke-width:1.0;"/><text fill="#000000" font-family="sans-serif" font-size="13" lengthAdjust="spacing" textLength="120" x="53.75" y="1134.9584">OIDC PKCE (HTTPS)</text></g><!--SRC=[ZLLDQnin53nRl-BXN9g3asimfP2wBaqAJUXko5civLfaBIcI730b_xrFsjNg8x8fFgoP6Jsz6QtUcXSk5DLq3pqNp1uL0wdjJXAYQFT2_p3uhgMmJ6pWBva5RCw4rKSbkR1pe0Qse-Oguau-w-HUIO4Wx2aNhScWMwMQDzPRHcRl9AbjTbIpJLvtmE1YVUD-HMsg-Ahd-2z3XoLFV1KGKw5RD6po_HNwtygUIxzBGBtSUAWiOh8TFh2DbPfL2QRVU5UbRXKd3Y_hmsBn9IqBIpXmC9PQ5kK3aoY7VL2xaUuOW7QMIs6I5QCYhi46KA_Pwu4PRyibD8NHuHbRMOOneAV26DXA62DH2sEWGXXbVTzkKhO88sKIvPamSaLSSpuCPhSVtWk7dGh2SPKOF5mBmH4XWhokRt4gLzYF-AGwOptbWxvYExiez61tvKr4wCHzSrImNQ2JwnmVJUSrVNTJhTnpX2VHPDat6msdP12NVftNsc1Rk0NJb22-5dn6j3O6CQvfdhXrvKHRZeC8dkxW6jpyDVZq9Gqp1jiTD_ZFnQWEqt3eASsgEsZjYFldbipYHVS1n1aQN_g222z53h_7JyLNV8vVYdYKymwrjZzUTTY4d-efK5MwdZEb0zn6qPk_dKaTTFTxtRJmwKVRFZQOndtpyEkIX7DDvJxE9JpSVLl1uy_LUbnpIVu1]--></g></svg>