<?xml version="1.0" encoding="us-ascii" standalone="no"?><svg xmlns="http://www.w3.org/2000/svg" xmlns:xlink="http://www.w3.org/1999/xlink" contentStyleType="text/css" height="838px" preserveAspectRatio="none" style="width:4020px;height:838px;background:#FFFFFF;" version="1.1" viewBox="0 0 4020 838" width="4020px" zoomAndPan="magnify"><defs/><g><!--cluster Legend--><g id="cluster_Legend"><path d="M3576.5,194 L3628.5,194 A3.75,3.75 0 0 1 3631,196.5 L3638,216.4883 L4010.5,216.4883 A2.5,2.5 0 0 1 4013,218.9883 L4013,288.99 A2.5,2.5 0 0 1 4010.5,291.49 L3576.5,291.49 A2.5,2.5 0 0 1 3574,288.99 L3574,196.5 A2.5,2.5 0 0 1 3576.5,194 " fill="none" style="stroke:#000000;stroke-width:1.5;"/><line style="stroke:#000000;stroke-width:1.5;" x1="3574" x2="3638" y1="216.4883" y2="216.4883"/><text fill="#000000" font-family="sans-serif" font-size="14" font-weight="bold" lengthAdjust="spacing" textLength="51" x="3578" y="209.5352">Legend</text></g><!--cluster Backend--><g id="cluster_Backend"><path d="M8.5,6 L68.5,6 A3.75,3.75 0 0 1 71,8.5 L78,28.4883 L3547.5,28.4883 A2.5,2.5 0 0 1 3550,30.9883 L3550,829.2 A2.5,2.5 0 0 1 3547.5,831.7 L8.5,831.7 A2.5,2.5 0 0 1 6,829.2 L6,8.5 A2.5,2.5 0 0 1 8.5,6 " fill="none" style="stroke:#000000;stroke-width:1.5;"/><line style="stroke:#000000;stroke-width:1.5;" x1="6" x2="78" y1="28.4883" y2="28.4883"/><text fill="#000000" font-family="sans-serif" font-size="14" font-weight="bold" lengthAdjust="spacing" textLength="59" x="10" y="21.5352">Backend</text></g><!--cluster capitly.core--><g id="cluster_capitly.core"><path d="M40.5,57 L230.5,57 A3.75,3.75 0 0 1 233,59.5 L240,79.4883 L2646.5,79.4883 A2.5,2.5 0 0 1 2649,81.9883 L2649,678.71 A2.5,2.5 0 0 1 2646.5,681.21 L40.5,681.21 A2.5,2.5 0 0 1 38,678.71 L38,59.5 A2.5,2.5 0 0 1 40.5,57 " fill="#DFF7DF" style="stroke:#000000;stroke-width:1.5;"/><line style="stroke:#000000;stroke-width:1.5;" x1="38" x2="240" y1="79.4883" y2="79.4883"/><text fill="#000000" font-family="sans-serif" font-size="14" font-weight="bold" lengthAdjust="spacing" textLength="189" x="42" y="72.5352">core (modularer Monolith)</text></g><!--cluster portfolio--><g id="cluster_portfolio"><path d="M72.5,108 L137.5,108 A3.75,3.75 0 0 1 140,110.5 L147,130.4883 L2606.5,130.4883 A2.5,2.5 0 0 1 2609,132.9883 L2609,646.71 A2.5,2.5 0 0 1 2606.5,649.21 L72.5,649.21 A2.5,2.5 0 0 1 70,646.71 L70,110.5 A2.5,2.5 0 0 1 72.5,108 " fill="none" style="stroke:#000000;stroke-width:1.5;"/><line style="stroke:#000000;stroke-width:1.5;" x1="70" x2="147" y1="130.4883" y2="130.4883"/><text fill="#000000" font-family="sans-serif" font-size="14" font-weight="bold" lengthAdjust="spacing" textLength="64" x="74" y="123.5352">portfolio</text></g><!--cluster shares--><g id="cluster_shares"><path d="M96.5,151 L144.5,151 A3.75,3.75 0 0 1 147,153.5 L154,173.4883 L924.5,173.4883 A2.5,2.5 0 0 1 927,175.9883 L927,622.71 A2.5,2.5 0 0 1 924.5,625.21 L96.5,625.21 A2.5,2.5 0 0 1 94,622.71 L94,153.5 A2.5,2.5 0 0 1 96.5,151 " fill="none" style="stroke:#000000;stroke-width:1.5;"/><line style="stroke:#000000;stroke-width:1.5;" x1="94" x2="154" y1="173.4883" y2="173.4883"/><text fill="#000000" font-family="sans-serif" font-size="14" font-weight="bold" lengthAdjust="spacing" textLength="47" x="98" y="166.5352">shares</text></g><!--cluster shares_domain--><g id="cluster_shares_domain"><path d="M289.5,374.49 L406.5,374.49 A3.75,3.75 0 0 1 409,376.99 L416,396.9783 L673.5,396.9783 A2.5,2.5 0 0 1 676,399.4783 L676,598.71 A2.5,2.5 0 0 1 673.5,601.21 L289.5,601.21 A2.5,2.5 0 0 1 287,598.71 L287,376.99 A2.5,2.5 0 0 1 289.5,374.49 " fill="none" style="stroke:#000000;stroke-width:1.5;"/><line style="stroke:#000000;stroke-width:1.5;" x1="287" x2="416" y1="396.9783" y2="396.9783"/><text fill="#000000" font-family="sans-serif" font-size="14" font-weight="bold" lengthAdjust="spacing" textLength="116" x="291" y="390.0252">domain (shares)</text></g><!--cluster shares_infra--><g id="cluster_shares_infra"><path d="M120.5,194 L282.5,194 A3.75,3.75 0 0 1 285,196.5 L292,216.4883 L688.5,216.4883 A2.5,2.5 0 0 1 691,218.9883 L691,288.99 A2.5,2.5 0 0 1 688.5,291.49 L120.5,291.49 A2.5,2.5 0 0 1 118,288.99 L118,196.5 A2.5,2.5 0 0 1 120.5,194 " fill="none" style="stroke:#000000;stroke-width:1.5;"/><line style="stroke:#000000;stroke-width:1.5;" x1="118" x2="292" y1="216.4883" y2="216.4883"/><text fill="#000000" font-family="sans-serif" font-size="14" font-weight="bold" lengthAdjust="spacing" textLength="161" x="122" y="209.5352">infrastructure (shares)</text></g><!--cluster shares_controller--><g id="cluster_shares_controller"><path d="M717.5,194 L850.5,194 A3.75,3.75 0 0 1 853,196.5 L860,216.4883 L900.5,216.4883 A2.5,2.5 0 0 1 903,218.9883 L903,288.99 A2.5,2.5 0 0 1 900.5,291.49 L717.5,291.49 A2.5,2.5 0 0 1 715,288.99 L715,196.5 A2.5,2.5 0 0 1 717.5,194 " fill="none" style="stroke:#000000;stroke-width:1.5;"/><line style="stroke:#000000;stroke-width:1.5;" x1="715" x2="860" y1="216.4883" y2="216.4883"/><text fill="#000000" font-family="sans-serif" font-size="14" font-weight="bold" lengthAdjust="spacing" textLength="132" x="719" y="209.5352">controller (shares)</text></g><!--cluster crypto--><g id="cluster_crypto"><path d="M953.5,151 L999.5,151 A3.75,3.75 0 0 1 1002,153.5 L1009,173.4883 L1793.5,173.4883 A2.5,2.5 0 0 1 1796,175.9883 L1796,622.71 A2.5,2.5 0 0 1 1793.5,625.21 L953.5,625.21 A2.5,2.5 0 0 1 951,622.71 L951,153.5 A2.5,2.5 0 0 1 953.5,151 " fill="none" style="stroke:#000000;stroke-width:1.5;"/><line style="stroke:#000000;stroke-width:1.5;" x1="951" x2="1009" y1="173.4883" y2="173.4883"/><text fill="#000000" font-family="sans-serif" font-size="14" font-weight="bold" lengthAdjust="spacing" textLength="45" x="955" y="166.5352">crypto</text></g><!--cluster crypto_domain--><g id="cluster_crypto_domain"><path d="M1149.5,374.49 L1264.5,374.49 A3.75,3.75 0 0 1 1267,376.99 L1274,396.9783 L1541.5,396.9783 A2.5,2.5 0 0 1 1544,399.4783 L1544,598.71 A2.5,2.5 0 0 1 1541.5,601.21 L1149.5,601.21 A2.5,2.5 0 0 1 1147,598.71 L1147,376.99 A2.5,2.5 0 0 1 1149.5,374.49 " fill="none" style="stroke:#000000;stroke-width:1.5;"/><line style="stroke:#000000;stroke-width:1.5;" x1="1147" x2="1274" y1="396.9783" y2="396.9783"/><text fill="#000000" font-family="sans-serif" font-size="14" font-weight="bold" lengthAdjust="spacing" textLength="114" x="1151" y="390.0252">domain (crypto)</text></g><!--cluster crypto_infra--><g id="cluster_crypto_infra"><path d="M977.5,194 L1137.5,194 A3.75,3.75 0 0 1 1140,196.5 L1147,216.4883 L1557.5,216.4883 A2.5,2.5 0 0 1 1560,218.9883 L1560,288.99 A2.5,2.5 0 0 1 1557.5,291.49 L977.5,291.49 A2.5,2.5 0 0 1 975,288.99 L975,196.5 A2.5,2.5 0 0 1 977.5,194 " fill="none" style="stroke:#000000;stroke-width:1.5;"/><line style="stroke:#000000;stroke-width:1.5;" x1="975" x2="1147" y1="216.4883" y2="216.4883"/><text fill="#000000" font-family="sans-serif" font-size="14" font-weight="bold" lengthAdjust="spacing" textLength="159" x="979" y="209.5352">infrastructure (crypto)</text></g><!--cluster crypto_controller--><g id="cluster_crypto_controller"><path d="M1586.5,194 L1717.5,194 A3.75,3.75 0 0 1 1720,196.5 L1727,216.4883 L1769.5,216.4883 A2.5,2.5 0 0 1 1772,218.9883 L1772,288.99 A2.5,2.5 0 0 1 1769.5,291.49 L1586.5,291.49 A2.5,2.5 0 0 1 1584,288.99 L1584,196.5 A2.5,2.5 0 0 1 1586.5,194 " fill="none" style="stroke:#000000;stroke-width:1.5;"/><line style="stroke:#000000;stroke-width:1.5;" x1="1584" x2="1727" y1="216.4883" y2="216.4883"/><text fill="#000000" font-family="sans-serif" font-size="14" font-weight="bold" lengthAdjust="spacing" textLength="130" x="1588" y="209.5352">controller (crypto)</text></g><!--cluster etfs--><g id="cluster_etfs"><path d="M1822.5,151 L1851.5,151 A3.75,3.75 0 0 1 1854,153.5 L1861,173.4883 L2582.5,173.4883 A2.5,2.5 0 0 1 2585,175.9883 L2585,622.71 A2.5,2.5 0 0 1 2582.5,625.21 L1822.5,625.21 A2.5,2.5 0 0 1 1820,622.71 L1820,153.5 A2.5,2.5 0 0 1 1822.5,151 " fill="none" style="stroke:#000000;stroke-width:1.5;"/><line style="stroke:#000000;stroke-width:1.5;" x1="1820" x2="1861" y1="173.4883" y2="173.4883"/><text fill="#000000" font-family="sans-serif" font-size="14" font-weight="bold" lengthAdjust="spacing" textLength="28" x="1824" y="166.5352">etfs</text></g><!--cluster etf_domain--><g id="cluster_etf_domain"><path d="M2007.5,374.49 L2105.5,374.49 A3.75,3.75 0 0 1 2108,376.99 L2115,396.9783 L2351.5,396.9783 A2.5,2.5 0 0 1 2354,399.4783 L2354,598.71 A2.5,2.5 0 0 1 2351.5,601.21 L2007.5,601.21 A2.5,2.5 0 0 1 2005,598.71 L2005,376.99 A2.5,2.5 0 0 1 2007.5,374.49 " fill="none" style="stroke:#000000;stroke-width:1.5;"/><line style="stroke:#000000;stroke-width:1.5;" x1="2005" x2="2115" y1="396.9783" y2="396.9783"/><text fill="#000000" font-family="sans-serif" font-size="14" font-weight="bold" lengthAdjust="spacing" textLength="97" x="2009" y="390.0252">domain (etfs)</text></g><!--cluster etf_infra--><g id="cluster_etf_infra"><path d="M1846.5,194 L1989.5,194 A3.75,3.75 0 0 1 1992,196.5 L1999,216.4883 L2374.5,216.4883 A2.5,2.5 0 0 1 2377,218.9883 L2377,288.99 A2.5,2.5 0 0 1 2374.5,291.49 L1846.5,291.49 A2.5,2.5 0 0 1 1844,288.99 L1844,196.5 A2.5,2.5 0 0 1 1846.5,194 " fill="none" style="stroke:#000000;stroke-width:1.5;"/><line style="stroke:#000000;stroke-width:1.5;" x1="1844" x2="1999" y1="216.4883" y2="216.4883"/><text fill="#000000" font-family="sans-serif" font-size="14" font-weight="bold" lengthAdjust="spacing" textLength="142" x="1848" y="209.5352">infrastructure (etfs)</text></g><!--cluster etf_controller--><g id="cluster_etf_controller"><path d="M2403.5,194 L2517.5,194 A3.75,3.75 0 0 1 2520,196.5 L2527,216.4883 L2558.5,216.4883 A2.5,2.5 0 0 1 2561,218.9883 L2561,288.99 A2.5,2.5 0 0 1 2558.5,291.49 L2403.5,291.49 A2.5,2.5 0 0 1 2401,288.99 L2401,196.5 A2.5,2.5 0 0 1 2403.5,194 " fill="none" style="stroke:#000000;stroke-width:1.5;"/><line style="stroke:#000000;stroke-width:1.5;" x1="2401" x2="2527" y1="216.4883" y2="216.4883"/><text fill="#000000" font-family="sans-serif" font-size="14" font-weight="bold" lengthAdjust="spacing" textLength="113" x="2405" y="209.5352">controller (etfs)</text></g><!--cluster capitly.auth--><g id="cluster_capitly.auth"><path d="M2691.5,323.49 L2885.5,323.49 A3.75,3.75 0 0 1 2888,325.99 L2895,345.9783 L3515.5,345.9783 A2.5,2.5 0 0 1 3518,348.4783 L3518,797.2 A2.5,2.5 0 0 1 3515.5,799.7 L2691.5,799.7 A2.5,2.5 0 0 1 2689,797.2 L2689,325.99 A2.5,2.5 0 0 1 2691.5,323.49 " fill="#ADD8E6" style="stroke:#000000;stroke-width:1.5;"/><line style="stroke:#000000;stroke-width:1.5;" x1="2689" x2="2895" y1="345.9783" y2="345.9783"/><text fill="#000000" font-family="sans-serif" font-size="14" font-weight="bold" lengthAdjust="spacing" textLength="193" x="2693" y="339.0252">auth Service (microservice)</text></g><!--cluster auth_domain--><g id="cluster_auth_domain"><path d="M2888.5,503.72 L2990.5,503.72 A3.75,3.75 0 0 1 2993,506.22 L3000,526.2083 L3256.5,526.2083 A2.5,2.5 0 0 1 3259,528.7083 L3259,765.2 A2.5,2.5 0 0 1 3256.5,767.7 L2888.5,767.7 A2.5,2.5 0 0 1 2886,765.2 L2886,506.22 A2.5,2.5 0 0 1 2888.5,503.72 " fill="none" style="stroke:#000000;stroke-width:1.5;"/><line style="stroke:#000000;stroke-width:1.5;" x1="2886" x2="3000" y1="526.2083" y2="526.2083"/><text fill="#000000" font-family="sans-serif" font-size="14" font-weight="bold" lengthAdjust="spacing" textLength="101" x="2890" y="519.2552">domain (auth)</text></g><!--cluster auth_infra--><g id="cluster_auth_infra"><path d="M2723.5,374.49 L2870.5,374.49 A3.75,3.75 0 0 1 2873,376.99 L2880,396.9783 L3277.5,396.9783 A2.5,2.5 0 0 1 3280,399.4783 L3280,469.48 A2.5,2.5 0 0 1 3277.5,471.98 L2723.5,471.98 A2.5,2.5 0 0 1 2721,469.48 L2721,376.99 A2.5,2.5 0 0 1 2723.5,374.49 " fill="none" style="stroke:#000000;stroke-width:1.5;"/><line style="stroke:#000000;stroke-width:1.5;" x1="2721" x2="2880" y1="396.9783" y2="396.9783"/><text fill="#000000" font-family="sans-serif" font-size="14" font-weight="bold" lengthAdjust="spacing" textLength="146" x="2725" y="390.0252">infrastructure (auth)</text></g><!--cluster auth_controller--><g id="cluster_auth_controller"><path d="M3306.5,374.49 L3424.5,374.49 A3.75,3.75 0 0 1 3427,376.99 L3434,396.9783 L3475.5,396.9783 A2.5,2.5 0 0 1 3478,399.4783 L3478,469.48 A2.5,2.5 0 0 1 3475.5,471.98 L3306.5,471.98 A2.5,2.5 0 0 1 3304,469.48 L3304,376.99 A2.5,2.5 0 0 1 3306.5,374.49 " fill="none" style="stroke:#000000;stroke-width:1.5;"/><line style="stroke:#000000;stroke-width:1.5;" x1="3304" x2="3434" y1="396.9783" y2="396.9783"/><text fill="#000000" font-family="sans-serif" font-size="14" font-weight="bold" lengthAdjust="spacing" textLength="117" x="3308" y="390.0252">controller (auth)</text></g><!--cluster Datastores--><g id="cluster_Datastores"><path d="M3576.5,366.75 L3655.5,366.75 A3.75,3.75 0 0 1 3658,369.25 L3665,389.2383 L3910.5,389.2383 A2.5,2.5 0 0 1 3913,391.7383 L3913,477.22 A2.5,2.5 0 0 1 3910.5,479.72 L3576.5,479.72 A2.5,2.5 0 0 1 3574,477.22 L3574,369.25 A2.5,2.5 0 0 1 3576.5,366.75 " fill="none" style="stroke:#000000;stroke-width:1.5;"/><line style="stroke:#000000;stroke-width:1.5;" x1="3574" x2="3665" y1="389.2383" y2="389.2383"/><text fill="#000000" font-family="sans-serif" font-size="14" font-weight="bold" lengthAdjust="spacing" textLength="78" x="3578" y="382.2852">Datastores</text></g><!--entity legendAuth--><g id="elem_legendAuth"><rect fill="#ADD8E6" height="46.4883" rx="2.5" ry="2.5" style="stroke:#181818;stroke-width:0.5;" width="186" x="3590" y="229"/><rect fill="#ADD8E6" height="10" style="stroke:#181818;stroke-width:0.5;" width="15" x="3756" y="234"/><rect fill="#ADD8E6" height="2" style="stroke:#181818;stroke-width:0.5;" width="4" x="3754" y="236"/><rect fill="#ADD8E6" height="2" style="stroke:#181818;stroke-width:0.5;" width="4" x="3754" y="240"/><text fill="#000000" font-family="sans-serif" font-size="14" lengthAdjust="spacing" textLength="146" x="3605" y="262.5352">Auth Docker Network</text></g><!--entity legendCore--><g id="elem_legendCore"><rect fill="#DFF7DF" height="46.4883" rx="2.5" ry="2.5" style="stroke:#181818;stroke-width:0.5;" width="186" x="3811" y="229"/><rect fill="#DFF7DF" height="10" style="stroke:#181818;stroke-width:0.5;" width="15" x="3977" y="234"/><rect fill="#DFF7DF" height="2" style="stroke:#181818;stroke-width:0.5;" width="4" x="3975" y="236"/><rect fill="#DFF7DF" height="2" style="stroke:#181818;stroke-width:0.5;" width="4" x="3975" y="240"/><text fill="#000000" font-family="sans-serif" font-size="14" lengthAdjust="spacing" textLength="146" x="3826" y="262.5352">Core Docker Network</text></g><!--entity shareEntities--><g id="elem_shareEntities"><rect fill="#F1F1F1" height="46.4883" rx="2.5" ry="2.5" style="stroke:#181818;stroke-width:0.5;" width="128" x="303" y="409.49"/><rect fill="#F1F1F1" height="10" style="stroke:#181818;stroke-width:0.5;" width="15" x="411" y="414.49"/><rect fill="#F1F1F1" height="2" style="stroke:#181818;stroke-width:0.5;" width="4" x="409" y="416.49"/><rect fill="#F1F1F1" height="2" style="stroke:#181818;stroke-width:0.5;" width="4" x="409" y="420.49"/><text fill="#000000" font-family="sans-serif" font-size="14" lengthAdjust="spacing" textLength="88" x="318" y="443.0252">shareEntities</text></g><!--entity shareRepositoryInterfaces--><g id="elem_shareRepositoryInterfaces"><rect fill="#F1F1F1" height="46.4883" rx="2.5" ry="2.5" style="stroke:#181818;stroke-width:0.5;" width="218" x="372" y="538.72"/><rect fill="#F1F1F1" height="10" style="stroke:#181818;stroke-width:0.5;" width="15" x="570" y="543.72"/><rect fill="#F1F1F1" height="2" style="stroke:#181818;stroke-width:0.5;" width="4" x="568" y="545.72"/><rect fill="#F1F1F1" height="2" style="stroke:#181818;stroke-width:0.5;" width="4" x="568" y="549.72"/><text fill="#000000" font-family="sans-serif" font-size="14" lengthAdjust="spacing" textLength="178" x="387" y="572.2552">shareRepositoryInterfaces</text></g><!--entity shareServiceInterfaces--><g id="elem_shareServiceInterfaces"><rect fill="#F1F1F1" height="46.4883" rx="2.5" ry="2.5" style="stroke:#181818;stroke-width:0.5;" width="193" x="466.5" y="409.49"/><rect fill="#F1F1F1" height="10" style="stroke:#181818;stroke-width:0.5;" width="15" x="639.5" y="414.49"/><rect fill="#F1F1F1" height="2" style="stroke:#181818;stroke-width:0.5;" width="4" x="637.5" y="416.49"/><rect fill="#F1F1F1" height="2" style="stroke:#181818;stroke-width:0.5;" width="4" x="637.5" y="420.49"/><text fill="#000000" font-family="sans-serif" font-size="14" lengthAdjust="spacing" textLength="153" x="481.5" y="443.0252">shareServiceInterfaces</text></g><!--entity shareRepositoryImplementations--><g id="elem_shareRepositoryImplementations"><rect fill="#F1F1F1" height="46.4883" rx="2.5" ry="2.5" style="stroke:#181818;stroke-width:0.5;" width="266" x="134" y="229"/><rect fill="#F1F1F1" height="10" style="stroke:#181818;stroke-width:0.5;" width="15" x="380" y="234"/><rect fill="#F1F1F1" height="2" style="stroke:#181818;stroke-width:0.5;" width="4" x="378" y="236"/><rect fill="#F1F1F1" height="2" style="stroke:#181818;stroke-width:0.5;" width="4" x="378" y="240"/><text fill="#000000" font-family="sans-serif" font-size="14" lengthAdjust="spacing" textLength="226" x="149" y="262.5352">shareRepositoryImplementations</text></g><!--entity shareServiceImplementations--><g id="elem_shareServiceImplementations"><rect fill="#F1F1F1" height="46.4883" rx="2.5" ry="2.5" style="stroke:#181818;stroke-width:0.5;" width="241" x="434.5" y="229"/><rect fill="#F1F1F1" height="10" style="stroke:#181818;stroke-width:0.5;" width="15" x="655.5" y="234"/><rect fill="#F1F1F1" height="2" style="stroke:#181818;stroke-width:0.5;" width="4" x="653.5" y="236"/><rect fill="#F1F1F1" height="2" style="stroke:#181818;stroke-width:0.5;" width="4" x="653.5" y="240"/><text fill="#000000" font-family="sans-serif" font-size="14" lengthAdjust="spacing" textLength="201" x="449.5" y="262.5352">shareServiceImplementations</text></g><!--entity SharesController--><g id="elem_SharesController"><rect fill="#F1F1F1" height="46.4883" rx="2.5" ry="2.5" style="stroke:#181818;stroke-width:0.5;" width="156" x="731" y="229"/><rect fill="#F1F1F1" height="10" style="stroke:#181818;stroke-width:0.5;" width="15" x="867" y="234"/><rect fill="#F1F1F1" height="2" style="stroke:#181818;stroke-width:0.5;" width="4" x="865" y="236"/><rect fill="#F1F1F1" height="2" style="stroke:#181818;stroke-width:0.5;" width="4" x="865" y="240"/><text fill="#000000" font-family="sans-serif" font-size="14" lengthAdjust="spacing" textLength="116" x="746" y="262.5352">SharesController</text></g><!--entity cryptoEntities--><g id="elem_cryptoEntities"><rect fill="#F1F1F1" height="46.4883" rx="2.5" ry="2.5" style="stroke:#181818;stroke-width:0.5;" width="133" x="1162.5" y="409.49"/><rect fill="#F1F1F1" height="10" style="stroke:#181818;stroke-width:0.5;" width="15" x="1275.5" y="414.49"/><rect fill="#F1F1F1" height="2" style="stroke:#181818;stroke-width:0.5;" width="4" x="1273.5" y="416.49"/><rect fill="#F1F1F1" height="2" style="stroke:#181818;stroke-width:0.5;" width="4" x="1273.5" y="420.49"/><text fill="#000000" font-family="sans-serif" font-size="14" lengthAdjust="spacing" textLength="93" x="1177.5" y="443.0252">cryptoEntities</text></g><!--entity cryptoRepositoryInterfaces--><g id="elem_cryptoRepositoryInterfaces"><rect fill="#F1F1F1" height="46.4883" rx="2.5" ry="2.5" style="stroke:#181818;stroke-width:0.5;" width="223" x="1233.5" y="538.72"/><rect fill="#F1F1F1" height="10" style="stroke:#181818;stroke-width:0.5;" width="15" x="1436.5" y="543.72"/><rect fill="#F1F1F1" height="2" style="stroke:#181818;stroke-width:0.5;" width="4" x="1434.5" y="545.72"/><rect fill="#F1F1F1" height="2" style="stroke:#181818;stroke-width:0.5;" width="4" x="1434.5" y="549.72"/><text fill="#000000" font-family="sans-serif" font-size="14" lengthAdjust="spacing" textLength="183" x="1248.5" y="572.2552">cryptoRepositoryInterfaces</text></g><!--entity cryptoServiceInterfaces--><g id="elem_cryptoServiceInterfaces"><rect fill="#F1F1F1" height="46.4883" rx="2.5" ry="2.5" style="stroke:#181818;stroke-width:0.5;" width="198" x="1330" y="409.49"/><rect fill="#F1F1F1" height="10" style="stroke:#181818;stroke-width:0.5;" width="15" x="1508" y="414.49"/><rect fill="#F1F1F1" height="2" style="stroke:#181818;stroke-width:0.5;" width="4" x="1506" y="416.49"/><rect fill="#F1F1F1" height="2" style="stroke:#181818;stroke-width:0.5;" width="4" x="1506" y="420.49"/><text fill="#000000" font-family="sans-serif" font-size="14" lengthAdjust="spacing" textLength="158" x="1345" y="443.0252">cryptoServiceInterfaces</text></g><!--entity cryptoRepositoryImplementations--><g id="elem_cryptoRepositoryImplementations"><rect fill="#F1F1F1" height="46.4883" rx="2.5" ry="2.5" style="stroke:#181818;stroke-width:0.5;" width="271" x="991.5" y="229"/><rect fill="#F1F1F1" height="10" style="stroke:#181818;stroke-width:0.5;" width="15" x="1242.5" y="234"/><rect fill="#F1F1F1" height="2" style="stroke:#181818;stroke-width:0.5;" width="4" x="1240.5" y="236"/><rect fill="#F1F1F1" height="2" style="stroke:#181818;stroke-width:0.5;" width="4" x="1240.5" y="240"/><text fill="#000000" font-family="sans-serif" font-size="14" lengthAdjust="spacing" textLength="231" x="1006.5" y="262.5352">cryptoRepositoryImplementations</text></g><!--entity cryptoServiceImplementations--><g id="elem_cryptoServiceImplementations"><rect fill="#F1F1F1" height="46.4883" rx="2.5" ry="2.5" style="stroke:#181818;stroke-width:0.5;" width="246" x="1298" y="229"/><rect fill="#F1F1F1" height="10" style="stroke:#181818;stroke-width:0.5;" width="15" x="1524" y="234"/><rect fill="#F1F1F1" height="2" style="stroke:#181818;stroke-width:0.5;" width="4" x="1522" y="236"/><rect fill="#F1F1F1" height="2" style="stroke:#181818;stroke-width:0.5;" width="4" x="1522" y="240"/><text fill="#000000" font-family="sans-serif" font-size="14" lengthAdjust="spacing" textLength="206" x="1313" y="262.5352">cryptoServiceImplementations</text></g><!--entity CryptoController--><g id="elem_CryptoController"><rect fill="#F1F1F1" height="46.4883" rx="2.5" ry="2.5" style="stroke:#181818;stroke-width:0.5;" width="156" x="1600" y="229"/><rect fill="#F1F1F1" height="10" style="stroke:#181818;stroke-width:0.5;" width="15" x="1736" y="234"/><rect fill="#F1F1F1" height="2" style="stroke:#181818;stroke-width:0.5;" width="4" x="1734" y="236"/><rect fill="#F1F1F1" height="2" style="stroke:#181818;stroke-width:0.5;" width="4" x="1734" y="240"/><text fill="#000000" font-family="sans-serif" font-size="14" lengthAdjust="spacing" textLength="116" x="1615" y="262.5352">CryptoController</text></g><!--entity etfEntities--><g id="elem_etfEntities"><rect fill="#F1F1F1" height="46.4883" rx="2.5" ry="2.5" style="stroke:#181818;stroke-width:0.5;" width="108" x="2021" y="409.49"/><rect fill="#F1F1F1" height="10" style="stroke:#181818;stroke-width:0.5;" width="15" x="2109" y="414.49"/><rect fill="#F1F1F1" height="2" style="stroke:#181818;stroke-width:0.5;" width="4" x="2107" y="416.49"/><rect fill="#F1F1F1" height="2" style="stroke:#181818;stroke-width:0.5;" width="4" x="2107" y="420.49"/><text fill="#000000" font-family="sans-serif" font-size="14" lengthAdjust="spacing" textLength="68" x="2036" y="443.0252">etfEntities</text></g><!--entity etfRepositoryInterfaces--><g id="elem_etfRepositoryInterfaces"><rect fill="#F1F1F1" height="46.4883" rx="2.5" ry="2.5" style="stroke:#181818;stroke-width:0.5;" width="198" x="2080" y="538.72"/><rect fill="#F1F1F1" height="10" style="stroke:#181818;stroke-width:0.5;" width="15" x="2258" y="543.72"/><rect fill="#F1F1F1" height="2" style="stroke:#181818;stroke-width:0.5;" width="4" x="2256" y="545.72"/><rect fill="#F1F1F1" height="2" style="stroke:#181818;stroke-width:0.5;" width="4" x="2256" y="549.72"/><text fill="#000000" font-family="sans-serif" font-size="14" lengthAdjust="spacing" textLength="158" x="2095" y="572.2552">etfRepositoryInterfaces</text></g><!--entity etfServiceInterfaces--><g id="elem_etfServiceInterfaces"><rect fill="#F1F1F1" height="46.4883" rx="2.5" ry="2.5" style="stroke:#181818;stroke-width:0.5;" width="173" x="2164.5" y="409.49"/><rect fill="#F1F1F1" height="10" style="stroke:#181818;stroke-width:0.5;" width="15" x="2317.5" y="414.49"/><rect fill="#F1F1F1" height="2" style="stroke:#181818;stroke-width:0.5;" width="4" x="2315.5" y="416.49"/><rect fill="#F1F1F1" height="2" style="stroke:#181818;stroke-width:0.5;" width="4" x="2315.5" y="420.49"/><text fill="#000000" font-family="sans-serif" font-size="14" lengthAdjust="spacing" textLength="133" x="2179.5" y="443.0252">etfServiceInterfaces</text></g><!--entity etfRepositoryImplementations--><g id="elem_etfRepositoryImplementations"><rect fill="#F1F1F1" height="46.4883" rx="2.5" ry="2.5" style="stroke:#181818;stroke-width:0.5;" width="246" x="1860" y="229"/><rect fill="#F1F1F1" height="10" style="stroke:#181818;stroke-width:0.5;" width="15" x="2086" y="234"/><rect fill="#F1F1F1" height="2" style="stroke:#181818;stroke-width:0.5;" width="4" x="2084" y="236"/><rect fill="#F1F1F1" height="2" style="stroke:#181818;stroke-width:0.5;" width="4" x="2084" y="240"/><text fill="#000000" font-family="sans-serif" font-size="14" lengthAdjust="spacing" textLength="206" x="1875" y="262.5352">etfRepositoryImplementations</text></g><!--entity etfServiceImplementations--><g id="elem_etfServiceImplementations"><rect fill="#F1F1F1" height="46.4883" rx="2.5" ry="2.5" style="stroke:#181818;stroke-width:0.5;" width="221" x="2140.5" y="229"/><rect fill="#F1F1F1" height="10" style="stroke:#181818;stroke-width:0.5;" width="15" x="2341.5" y="234"/><rect fill="#F1F1F1" height="2" style="stroke:#181818;stroke-width:0.5;" width="4" x="2339.5" y="236"/><rect fill="#F1F1F1" height="2" style="stroke:#181818;stroke-width:0.5;" width="4" x="2339.5" y="240"/><text fill="#000000" font-family="sans-serif" font-size="14" lengthAdjust="spacing" textLength="181" x="2155.5" y="262.5352">etfServiceImplementations</text></g><!--entity EtfController--><g id="elem_EtfController"><rect fill="#F1F1F1" height="46.4883" rx="2.5" ry="2.5" style="stroke:#181818;stroke-width:0.5;" width="128" x="2417" y="229"/><rect fill="#F1F1F1" height="10" style="stroke:#181818;stroke-width:0.5;" width="15" x="2525" y="234"/><rect fill="#F1F1F1" height="2" style="stroke:#181818;stroke-width:0.5;" width="4" x="2523" y="236"/><rect fill="#F1F1F1" height="2" style="stroke:#181818;stroke-width:0.5;" width="4" x="2523" y="240"/><text fill="#000000" font-family="sans-serif" font-size="14" lengthAdjust="spacing" textLength="88" x="2432" y="262.5352">EtfController</text></g><!--entity userEntities--><g id="elem_userEntities"><rect fill="#F1F1F1" height="46.4883" rx="2.5" ry="2.5" style="stroke:#181818;stroke-width:0.5;" width="120" x="2902" y="538.72"/><rect fill="#F1F1F1" height="10" style="stroke:#181818;stroke-width:0.5;" width="15" x="3002" y="543.72"/><rect fill="#F1F1F1" height="2" style="stroke:#181818;stroke-width:0.5;" width="4" x="3000" y="545.72"/><rect fill="#F1F1F1" height="2" style="stroke:#181818;stroke-width:0.5;" width="4" x="3000" y="549.72"/><text fill="#000000" font-family="sans-serif" font-size="14" lengthAdjust="spacing" textLength="80" x="2917" y="572.2552">userEntities</text></g><!--entity userRepositoryInterfaces--><g id="elem_userRepositoryInterfaces"><rect fill="#F1F1F1" height="46.4883" rx="2.5" ry="2.5" style="stroke:#181818;stroke-width:0.5;" width="210" x="2967" y="705.21"/><rect fill="#F1F1F1" height="10" style="stroke:#181818;stroke-width:0.5;" width="15" x="3157" y="710.21"/><rect fill="#F1F1F1" height="2" style="stroke:#181818;stroke-width:0.5;" width="4" x="3155" y="712.21"/><rect fill="#F1F1F1" height="2" style="stroke:#181818;stroke-width:0.5;" width="4" x="3155" y="716.21"/><text fill="#000000" font-family="sans-serif" font-size="14" lengthAdjust="spacing" textLength="170" x="2982" y="738.7452">userRepositoryInterfaces</text></g><!--entity authServiceInterfaces--><g id="elem_authServiceInterfaces"><rect fill="#F1F1F1" height="46.4883" rx="2.5" ry="2.5" style="stroke:#181818;stroke-width:0.5;" width="186" x="3057" y="538.72"/><rect fill="#F1F1F1" height="10" style="stroke:#181818;stroke-width:0.5;" width="15" x="3223" y="543.72"/><rect fill="#F1F1F1" height="2" style="stroke:#181818;stroke-width:0.5;" width="4" x="3221" y="545.72"/><rect fill="#F1F1F1" height="2" style="stroke:#181818;stroke-width:0.5;" width="4" x="3221" y="549.72"/><text fill="#000000" font-family="sans-serif" font-size="14" lengthAdjust="spacing" textLength="146" x="3072" y="572.2552">authServiceInterfaces</text></g><!--entity userRepositoryImplementations--><g id="elem_userRepositoryImplementations"><rect fill="#F1F1F1" height="46.4883" rx="2.5" ry="2.5" style="stroke:#181818;stroke-width:0.5;" width="258" x="2737" y="409.49"/><rect fill="#F1F1F1" height="10" style="stroke:#181818;stroke-width:0.5;" width="15" x="2975" y="414.49"/><rect fill="#F1F1F1" height="2" style="stroke:#181818;stroke-width:0.5;" width="4" x="2973" y="416.49"/><rect fill="#F1F1F1" height="2" style="stroke:#181818;stroke-width:0.5;" width="4" x="2973" y="420.49"/><text fill="#000000" font-family="sans-serif" font-size="14" lengthAdjust="spacing" textLength="218" x="2752" y="443.0252">userRepositoryImplementations</text></g><!--entity authServiceImplementations--><g id="elem_authServiceImplementations"><rect fill="#F1F1F1" height="46.4883" rx="2.5" ry="2.5" style="stroke:#181818;stroke-width:0.5;" width="234" x="3030" y="409.49"/><rect fill="#F1F1F1" height="10" style="stroke:#181818;stroke-width:0.5;" width="15" x="3244" y="414.49"/><rect fill="#F1F1F1" height="2" style="stroke:#181818;stroke-width:0.5;" width="4" x="3242" y="416.49"/><rect fill="#F1F1F1" height="2" style="stroke:#181818;stroke-width:0.5;" width="4" x="3242" y="420.49"/><text fill="#000000" font-family="sans-serif" font-size="14" lengthAdjust="spacing" textLength="194" x="3045" y="443.0252">authServiceImplementations</text></g><!--entity AuthController--><g id="elem_AuthController"><rect fill="#F1F1F1" height="46.4883" rx="2.5" ry="2.5" style="stroke:#181818;stroke-width:0.5;" width="143" x="3319.5" y="409.49"/><rect fill="#F1F1F1" height="10" style="stroke:#181818;stroke-width:0.5;" width="15" x="3442.5" y="414.49"/><rect fill="#F1F1F1" height="2" style="stroke:#181818;stroke-width:0.5;" width="4" x="3440.5" y="416.49"/><rect fill="#F1F1F1" height="2" style="stroke:#181818;stroke-width:0.5;" width="4" x="3440.5" y="420.49"/><text fill="#000000" font-family="sans-serif" font-size="14" lengthAdjust="spacing" textLength="103" x="3334.5" y="443.0252">AuthController</text></g><!--entity PG_core--><g id="elem_PG_core"><path d="M3590.5,411.75 C3590.5,401.75 3658,401.75 3658,401.75 C3658,401.75 3725.5,401.75 3725.5,411.75 L3725.5,453.7266 C3725.5,463.7266 3658,463.7266 3658,463.7266 C3658,463.7266 3590.5,463.7266 3590.5,453.7266 L3590.5,411.75 " fill="#DFF7DF" style="stroke:#181818;stroke-width:0.5;"/><path d="M3590.5,411.75 C3590.5,421.75 3658,421.75 3658,421.75 C3658,421.75 3725.5,421.75 3725.5,411.75 " fill="none" style="stroke:#181818;stroke-width:0.5;"/><text fill="#000000" font-family="sans-serif" font-size="14" lengthAdjust="spacing" textLength="115" x="3600.5" y="439.2852">PostgreSQL_core</text><text fill="#000000" font-family="sans-serif" font-size="14" lengthAdjust="spacing" textLength="43" x="3600.5" y="455.7734">(prod)</text></g><!--entity PG_auth--><g id="elem_PG_auth"><path d="M3761,419.99 C3761,409.99 3829,409.99 3829,409.99 C3829,409.99 3897,409.99 3897,419.99 L3897,445.4783 C3897,455.4783 3829,455.4783 3829,455.4783 C3829,455.4783 3761,455.4783 3761,445.4783 L3761,419.99 " fill="#ADD8E6" style="stroke:#181818;stroke-width:0.5;"/><path d="M3761,419.99 C3761,429.99 3829,429.99 3829,429.99 C3829,429.99 3897,429.99 3897,419.99 " fill="none" style="stroke:#181818;stroke-width:0.5;"/><text fill="#000000" font-family="sans-serif" font-size="14" lengthAdjust="spacing" textLength="116" x="3771" y="447.5252">PostgreSQL_auth</text></g><!--link SharesController to shareServiceInterfaces--><g id="link_SharesController_shareServiceInterfaces"><path d="M809,275.84 C809,324.75 809,432.7 809,432.7 C809,432.7 734.71,432.7 665.87,432.7 " fill="none" id="SharesController-to-shareServiceInterfaces" style="stroke:#181818;stroke-width:1.0;"/><polygon fill="#181818" points="659.87,432.7,668.87,436.7,664.87,432.7,668.87,428.7,659.87,432.7" style="stroke:#181818;stroke-width:1.0;"/><text fill="#000000" font-family="sans-serif" font-size="13" lengthAdjust="spacing" textLength="29" x="779" y="425.3984">uses</text></g><!--link shareServiceImplementations to shareServiceInterfaces--><g id="link_shareServiceImplementations_shareServiceInterfaces"><path d="M563,275.84 C563,310.43 563,356.54 563,391.13 " fill="none" id="shareServiceImplementations-to-shareServiceInterfaces" style="stroke:#181818;stroke-width:1.0;stroke-dasharray:7.0,7.0;"/><polygon fill="none" points="563,409.13,569,391.13,557,391.13,563,409.13" style="stroke:#181818;stroke-width:1.0;"/><text fill="#000000" font-family="sans-serif" font-size="13" lengthAdjust="spacing" textLength="74" x="488" y="339.0584">implements</text></g><!--link shareRepositoryImplementations to shareRepositoryInterfaces--><g id="link_shareRepositoryImplementations_shareRepositoryInterfaces"><path d="M218.5,275.76 C218.5,347.98 218.5,561.7 218.5,561.7 C218.5,561.7 281.55,561.7 353.58,561.7 " fill="none" id="shareRepositoryImplementations-to-shareRepositoryInterfaces" style="stroke:#181818;stroke-width:1.0;stroke-dasharray:7.0,7.0;"/><polygon fill="none" points="371.58,561.7,353.58,555.7,353.58,567.7,371.58,561.7" style="stroke:#181818;stroke-width:1.0;"/><text fill="#000000" font-family="sans-serif" font-size="13" lengthAdjust="spacing" textLength="74" x="143.5" y="491.8384">implements</text></g><!--link shareServiceInterfaces to shareRepositoryInterfaces--><g id="link_shareServiceInterfaces_shareRepositoryInterfaces"><path d="M528.25,456.44 C528.25,479.76 528.25,509.15 528.25,532.41 " fill="none" id="shareServiceInterfaces-to-shareRepositoryInterfaces" style="stroke:#181818;stroke-width:1.0;"/><polygon fill="#181818" points="528.25,538.41,532.25,529.41,528.25,533.41,524.25,529.41,528.25,538.41" style="stroke:#181818;stroke-width:1.0;"/><text fill="#000000" font-family="sans-serif" font-size="13" lengthAdjust="spacing" textLength="73" x="454.25" y="493.9984">depends on</text></g><!--link CryptoController to cryptoServiceInterfaces--><g id="link_CryptoController_cryptoServiceInterfaces"><path d="M1678,275.84 C1678,324.75 1678,432.7 1678,432.7 C1678,432.7 1603.84,432.7 1534.48,432.7 " fill="none" id="CryptoController-to-cryptoServiceInterfaces" style="stroke:#181818;stroke-width:1.0;"/><polygon fill="#181818" points="1528.48,432.7,1537.48,436.7,1533.48,432.7,1537.48,428.7,1528.48,432.7" style="stroke:#181818;stroke-width:1.0;"/><text fill="#000000" font-family="sans-serif" font-size="13" lengthAdjust="spacing" textLength="29" x="1648" y="425.5984">uses</text></g><!--link cryptoServiceImplementations to cryptoServiceInterfaces--><g id="link_cryptoServiceImplementations_cryptoServiceInterfaces"><path d="M1429,275.84 C1429,310.43 1429,356.54 1429,391.13 " fill="none" id="cryptoServiceImplementations-to-cryptoServiceInterfaces" style="stroke:#181818;stroke-width:1.0;stroke-dasharray:7.0,7.0;"/><polygon fill="none" points="1429,409.13,1435,391.13,1423,391.13,1429,409.13" style="stroke:#181818;stroke-width:1.0;"/><text fill="#000000" font-family="sans-serif" font-size="13" lengthAdjust="spacing" textLength="74" x="1354" y="339.0584">implements</text></g><!--link cryptoRepositoryImplementations to cryptoRepositoryInterfaces--><g id="link_cryptoRepositoryImplementations_cryptoRepositoryInterfaces"><path d="M1077,275.76 C1077,347.98 1077,561.7 1077,561.7 C1077,561.7 1141.75,561.7 1215.28,561.7 " fill="none" id="cryptoRepositoryImplementations-to-cryptoRepositoryInterfaces" style="stroke:#181818;stroke-width:1.0;stroke-dasharray:7.0,7.0;"/><polygon fill="none" points="1233.28,561.7,1215.28,555.7,1215.28,567.7,1233.28,561.7" style="stroke:#181818;stroke-width:1.0;"/><text fill="#000000" font-family="sans-serif" font-size="13" lengthAdjust="spacing" textLength="74" x="1002" y="493.4384">implements</text></g><!--link cryptoServiceInterfaces to cryptoRepositoryInterfaces--><g id="link_cryptoServiceInterfaces_cryptoRepositoryInterfaces"><path d="M1393.25,456.44 C1393.25,479.76 1393.25,509.15 1393.25,532.41 " fill="none" id="cryptoServiceInterfaces-to-cryptoRepositoryInterfaces" style="stroke:#181818;stroke-width:1.0;"/><polygon fill="#181818" points="1393.25,538.41,1397.25,529.41,1393.25,533.41,1389.25,529.41,1393.25,538.41" style="stroke:#181818;stroke-width:1.0;"/><text fill="#000000" font-family="sans-serif" font-size="13" lengthAdjust="spacing" textLength="73" x="1319.25" y="493.9984">depends on</text></g><!--link EtfController to etfServiceInterfaces--><g id="link_EtfController_etfServiceInterfaces"><path d="M2481,275.84 C2481,324.75 2481,432.7 2481,432.7 C2481,432.7 2409.09,432.7 2343.95,432.7 " fill="none" id="EtfController-to-etfServiceInterfaces" style="stroke:#181818;stroke-width:1.0;"/><polygon fill="#181818" points="2337.95,432.7,2346.95,436.7,2342.95,432.7,2346.95,428.7,2337.95,432.7" style="stroke:#181818;stroke-width:1.0;"/><text fill="#000000" font-family="sans-serif" font-size="13" lengthAdjust="spacing" textLength="29" x="2451" y="422.3584">uses</text></g><!--link etfServiceImplementations to etfServiceInterfaces--><g id="link_etfServiceImplementations_etfServiceInterfaces"><path d="M2251,275.84 C2251,310.43 2251,356.54 2251,391.13 " fill="none" id="etfServiceImplementations-to-etfServiceInterfaces" style="stroke:#181818;stroke-width:1.0;stroke-dasharray:7.0,7.0;"/><polygon fill="none" points="2251,409.13,2257,391.13,2245,391.13,2251,409.13" style="stroke:#181818;stroke-width:1.0;"/><text fill="#000000" font-family="sans-serif" font-size="13" lengthAdjust="spacing" textLength="74" x="2176" y="339.0584">implements</text></g><!--link etfRepositoryImplementations to etfRepositoryInterfaces--><g id="link_etfRepositoryImplementations_etfRepositoryInterfaces"><path d="M2106.21,252.7 C2123.08,252.7 2134.75,252.7 2134.75,252.7 C2134.75,252.7 2134.75,448.3 2134.75,520.47 " fill="none" id="etfRepositoryImplementations-to-etfRepositoryInterfaces" style="stroke:#181818;stroke-width:1.0;stroke-dasharray:7.0,7.0;"/><polygon fill="none" points="2134.75,538.47,2140.75,520.47,2128.75,520.47,2134.75,538.47" style="stroke:#181818;stroke-width:1.0;"/><text fill="#000000" font-family="sans-serif" font-size="13" lengthAdjust="spacing" textLength="74" x="2059.75" y="377.8784">implements</text></g><!--link etfServiceInterfaces to etfRepositoryInterfaces--><g id="link_etfServiceInterfaces_etfRepositoryInterfaces"><path d="M2221.25,456.44 C2221.25,479.76 2221.25,509.15 2221.25,532.41 " fill="none" id="etfServiceInterfaces-to-etfRepositoryInterfaces" style="stroke:#181818;stroke-width:1.0;"/><polygon fill="#181818" points="2221.25,538.41,2225.25,529.41,2221.25,533.41,2217.25,529.41,2221.25,538.41" style="stroke:#181818;stroke-width:1.0;"/><text fill="#000000" font-family="sans-serif" font-size="13" lengthAdjust="spacing" textLength="73" x="2147.25" y="493.9984">depends on</text></g><!--link AuthController to authServiceInterfaces--><g id="link_AuthController_authServiceInterfaces"><path d="M3391,456.39 C3391,493.62 3391,561.7 3391,561.7 C3391,561.7 3316.99,561.7 3249.18,561.7 " fill="none" id="AuthController-to-authServiceInterfaces" style="stroke:#181818;stroke-width:1.0;"/><polygon fill="#181818" points="3243.18,561.7,3252.18,565.7,3248.18,561.7,3252.18,557.7,3243.18,561.7" style="stroke:#181818;stroke-width:1.0;"/><text fill="#000000" font-family="sans-serif" font-size="13" lengthAdjust="spacing" textLength="29" x="3339.74" y="558.2684">uses</text></g><!--link authServiceImplementations to authServiceInterfaces--><g id="link_authServiceImplementations_authServiceInterfaces"><path d="M3150,456.44 C3150,479.76 3150,497.15 3150,520.41 " fill="none" id="authServiceImplementations-to-authServiceInterfaces" style="stroke:#181818;stroke-width:1.0;stroke-dasharray:7.0,7.0;"/><polygon fill="none" points="3150,538.41,3156,520.41,3144,520.41,3150,538.41" style="stroke:#181818;stroke-width:1.0;"/><text fill="#000000" font-family="sans-serif" font-size="13" lengthAdjust="spacing" textLength="74" x="3075" y="493.9984">implements</text></g><!--link userRepositoryImplementations to userRepositoryInterfaces--><g id="link_userRepositoryImplementations_userRepositoryInterfaces"><path d="M2995.15,432.7 C3013.34,432.7 3026,432.7 3026,432.7 C3026,432.7 3026,616.57 3026,686.75 " fill="none" id="userRepositoryImplementations-to-userRepositoryInterfaces" style="stroke:#181818;stroke-width:1.0;stroke-dasharray:7.0,7.0;"/><polygon fill="none" points="3026,704.75,3032,686.75,3020,686.75,3026,704.75" style="stroke:#181818;stroke-width:1.0;"/><text fill="#000000" font-family="sans-serif" font-size="13" lengthAdjust="spacing" textLength="74" x="2951" y="549.8684">implements</text></g><!--link authServiceInterfaces to userRepositoryInterfaces--><g id="link_authServiceInterfaces_userRepositoryInterfaces"><path d="M3117,585.47 C3117,617.11 3117,667.09 3117,698.81 " fill="none" id="authServiceInterfaces-to-userRepositoryInterfaces" style="stroke:#181818;stroke-width:1.0;"/><polygon fill="#181818" points="3117,704.81,3121,695.81,3117,699.81,3113,695.81,3117,704.81" style="stroke:#181818;stroke-width:1.0;"/><text fill="#000000" font-family="sans-serif" font-size="13" lengthAdjust="spacing" textLength="73" x="3043" y="641.7084">depends on</text></g><!--link capitly.core to capitly.auth--><g id="link_capitly.core_capitly.auth"><path d="M2649.1718,252.7 C2649.5263,252.7 2649.8919,252.7 2650.2684,252.7 C2651.7743,252.7 2653.4554,252.7 2655.3055,252.7 C2662.706,252.7 2672.8106,252.7 2685.2259,252.7 C2710.0565,252.7 2744.1298,252.7 2784.2984,252.7 C2864.6356,252.7 2969.3538,252.7 3073.2725,252.7 C3281.11,252.7 3485.75,252.7 3485.75,252.7 C3485.75,252.7 3485.75,263.95 3485.75,280.825 C3485.75,289.2625 3485.75,299.1063 3485.75,309.6531 C3485.75,312.2898 3485.75,314.9705 3485.75,317.6841 C3485.75,319.0409 3485.75,320.406 3485.75,321.7779 C3485.75,322.1209 3485.75,316.4643 3485.75,316.8081 " fill="none" id="capitly.core-to-capitly.auth" style="stroke:#181818;stroke-width:1.0;"/><polygon fill="#181818" points="3485.75,322.8081,3489.75,313.8081,3485.75,317.8081,3481.75,313.8081,3485.75,322.8081" style="stroke:#181818;stroke-width:1.0;"/><text fill="#000000" font-family="sans-serif" font-size="13" lengthAdjust="spacing" textLength="211" x="2953.51" y="249.2684">JWT validation (JWKS fetch HTTPS)</text></g><!--link capitly.core to PG_core--><g id="link_capitly.core_PG_core"><path d="M2649.1583,405.7 C2654.4983,405.7 2662.36,405.7 2672.4465,405.7 C2692.6195,405.7 2721.6921,405.7 2757.2905,405.7 C2828.4872,405.7 2925.7869,405.7 3030.1988,405.7 C3239.0225,405.7 3470.295,405.7 3584.09,405.7 " fill="none" id="capitly.core-to-PG_core" style="stroke:#181818;stroke-width:1.0;"/><polygon fill="#181818" points="3590.09,405.7,3581.09,401.7,3585.09,405.7,3581.09,409.7,3590.09,405.7" style="stroke:#181818;stroke-width:1.0;"/><text fill="#000000" font-family="sans-serif" font-size="13" lengthAdjust="spacing" textLength="117" x="2921.16" y="402.2684">owns / JDBC / SQL</text></g><!--link capitly.auth to PG_auth--><g id="link_capitly.auth_PG_auth"><path d="M3518.0199,338.7 C3518.2104,338.7 3518.404,338.7 3518.6008,338.7 C3519.3877,338.7 3520.2239,338.7 3521.1074,338.7 C3528.1758,338.7 3538.2734,338.7 3550.3906,338.7 C3574.625,338.7 3606.9375,338.7 3639.25,338.7 C3703.875,338.7 3768.5,338.7 3768.5,338.7 C3768.5,338.7 3768.5,376.14 3768.5,403.97 " fill="none" id="capitly.auth-to-PG_auth" style="stroke:#181818;stroke-width:1.0;"/><polygon fill="#181818" points="3768.5,409.97,3772.5,400.97,3768.5,404.97,3764.5,400.97,3768.5,409.97" style="stroke:#181818;stroke-width:1.0;"/><text fill="#000000" font-family="sans-serif" font-size="13" lengthAdjust="spacing" textLength="117" x="3510.17" y="335.2684">owns / JDBC / SQL</text></g><!--SRC=[hPT1Rzem5CVl-HHFz48FPRTjub2f9R2DTHCRIBrCGfunO17io36jKDVlFiSEmGvsI12zaCRl_Vt-Vlw1dMqeIv50MqWe8tAV4k12hdaKfGXlq8h04raHje2t2DGVvjkKCy8aT1vsSWqnnniYu2UHhrniEe0oI7Iy7hrvYEFFmu_Lp04N99ofHs_YqUXJF8hUop8UrUUnZiFR3iwZkrk-s2L8ABqVdF64olMjLiGefJBPzx2b2MyGQGrR9rMcbogH5_hLyMojrBFAe5F8WcyHPT0raMPwypmlXawJtNNHqKCcgQGaQnBxcwGyevAB_JScYLWYt2nlIiGBnQGcwJtiaxAbG9aKEont-T9x_EgGPdOj2ziq8LirW2Jbh9MFCvarPZ1dKl0aKHl7PyGQFkTcgZC6POAdYfDNrHoukxiFT0ZwiCiyZQfP1-Zr_jN8qKDqG3JO6KlNjm4RI9-MKneFA2v8gjZFWBEePaqFRSLYdqhU15OJMNnNwEUci9heXhIQu0jmDObNvTLZkHcl9oPQ0UiwkGwn7YijY1teZ7R4LdFqnWqqAOHitKeOjiA2DMITQO-jt1xRK4L7-rS1byXbez_OFCwqNJqr9LQ5DiHLHLx0gigwAgYkoMQCkfMt0jGg_pfqklMt07Ceb-seT1BqdlJr8iHZqBX19Y1L0qjT4qhDzWnw2odCNaoVwMNnecmZoW_lnMJgS4snu9dvpprM8-kGRxNrXDSypcJcJtvWZ_rNNH9UKjsGiuWUm_DPmso-HsTPh1ZmmHWiheOcVuM114-PDcwL4eEy7UVChsWUqApTuKRepUPToYfQOJTc_uT4FBk_TZ6DMcWp-0NzS-VMQdGg81LBvDmkzK-XpKKVniypU449NUXgeJj-_Zw59P5u3LzdiydqLbrlo_jjZAJQSVnuorHPw2_AL9idF9ChTMp-zJJFf_h3kgdW2zFioPUvVRaDP-Or7J9iRlCQN2FtfMWV-AjQvGymZXy7waFfH8v74rlOFOtz3m00]--></g></svg>